<svg xmlns="http://www.w3.org/2000/svg" xmlns:xlink="http://www.w3.org/1999/xlink" width="561.88" height="215.93" viewBox="0 0 561.88 215.93"><defs><style>.cls-1{fill:none;}.cls-2{fill:url(#linear-gradient);}.cls-3{fill:url(#linear-gradient-2);}.cls-4{fill:url(#linear-gradient-3);}.cls-5{fill:url(#linear-gradient-4);}.cls-6{isolation:isolate;}.cls-7{clip-path:url(#clip-path);}.cls-8{clip-path:url(#clip-path-2);}.cls-9{clip-path:url(#clip-path-3);}.cls-10{clip-path:url(#clip-path-4);}.cls-11{fill:#1e4c64;}.cls-12{fill:#8cc602;}.cls-13{fill:#286985;}.cls-14{fill:#fff;}.cls-15{fill:url(#linear-gradient-5);}.cls-16{fill:url(#linear-gradient-6);}.cls-17{fill:url(#linear-gradient-7);}</style><linearGradient id="linear-gradient" x1="287.5" y1="69.18" x2="287.5" y2="174.6" gradientUnits="userSpaceOnUse"><stop offset="0" stop-color="#114866"/><stop offset="0.48" stop-color="#4a9ab3"/><stop offset="1" stop-color="#114866"/></linearGradient><linearGradient id="linear-gradient-2" x1="396.4" y1="69.18" x2="396.4" y2="174.6" xlink:href="#linear-gradient"/><linearGradient id="linear-gradient-3" x1="514.54" y1="69.18" x2="514.54" y2="174.6" xlink:href="#linear-gradient"/><linearGradient id="linear-gradient-4" x1="41.29" y1="78.62" x2="41.29" y2="175.25" gradientUnits="userSpaceOnUse"><stop offset="0" stop-color="#262262"/><stop offset="0.48" stop-color="#1c75bc"/><stop offset="1" stop-color="#262262"/></linearGradient><clipPath id="clip-path"><polygon class="cls-1" points="11.6 176.39 11.77 83.59 83.42 73.52 83.25 166.32 11.6 176.39"/></clipPath><clipPath id="clip-path-2"><path class="cls-1" d="M69.72,103.27a6.48,6.48,0,0,0-1,3.27L68.6,120c0,1.06,0,2.79,0,3.84l0,13.43a5.11,5.11,0,0,0,1,3A30.59,30.59,0,0,0,72,142.39l9.11,7.52a4.33,4.33,0,0,1,1.32,3l0,10.64a2.2,2.2,0,0,1-1.78,2.16L14,175.08a1.58,1.58,0,0,1-1.77-1.67l0-10.63a5.8,5.8,0,0,1,1.33-3.38l9.14-10.08c.73-.81,1.78-2.07,2.33-2.81a6.47,6.47,0,0,0,1-3.26l.1-13.46c0-1,0-2.77,0-3.83l-.06-13.43a5.11,5.11,0,0,0-1-3,29.24,29.24,0,0,0-2.33-2.16l-9.1-7.5a4.44,4.44,0,0,1-1.32-3l0-10.63a2.23,2.23,0,0,1,1.78-2.17l66.63-9.36a1.57,1.57,0,0,1,1.77,1.67l0,10.63a5.88,5.88,0,0,1-1.33,3.39L72,100.46c-.72.81-1.77,2.07-2.32,2.81"/></clipPath><clipPath id="clip-path-3"><path class="cls-1" d="M80.76,74.71,14.13,84.07a2.23,2.23,0,0,0-1.78,2.17l0,10.63a4.44,4.44,0,0,0,1.32,3l9.1,7.5a29.24,29.24,0,0,1,2.33,2.16,5.11,5.11,0,0,1,1,3L26.14,126c0,1.06,0,2.78,0,3.83L26,143.25a6.47,6.47,0,0,1-1,3.26c-.55.74-1.6,2-2.33,2.81L13.54,159.4a5.8,5.8,0,0,0-1.33,3.38l0,10.63A1.58,1.58,0,0,0,14,175.08l66.63-9.37a2.2,2.2,0,0,0,1.78-2.16l0-10.64a4.33,4.33,0,0,0-1.32-3L72,142.39a30.59,30.59,0,0,1-2.31-2.15,5.11,5.11,0,0,1-1-3l0-13.43c0-1,0-2.78,0-3.84l.1-13.45a6.48,6.48,0,0,1,1-3.27c.55-.74,1.6-2,2.32-2.81L81.18,90.4A5.88,5.88,0,0,0,82.51,87l0-10.63a1.57,1.57,0,0,0-1.77-1.67"/></clipPath><clipPath id="clip-path-4"><polyline class="cls-1" points="83.25 166.32 11.6 176.39 11.77 83.59 83.42 73.52 83.25 166.32"/></clipPath><linearGradient id="linear-gradient-5" x1="272.2" y1="22.21" x2="293.44" y2="22.21" gradientUnits="userSpaceOnUse"><stop offset="0" stop-color="#114866"/><stop offset="0.48" stop-color="#256581"/><stop offset="1" stop-color="#114866"/></linearGradient><linearGradient id="linear-gradient-6" x1="274.66" y1="15.27" x2="275.49" y2="15.27" xlink:href="#linear-gradient-5"/><linearGradient id="linear-gradient-7" x1="289.68" y1="15.27" x2="290.51" y2="15.27" xlink:href="#linear-gradient-5"/></defs><g id="Layer_2" data-name="Layer 2"><g id="Layer_1-2" data-name="Layer 1"><path class="cls-2" d="M295.93,73.66a48.43,48.43,0,0,0-6.78,7.58c15.5,3.12,24.6,17.42,24.6,41.57,0,26.78-11.8,42.15-32.2,42.15h-8.64c-.26-13-.26-26.19-.26-40.11v-5.34c0-13.14,0-26.17.26-38.92h5.51a49.51,49.51,0,0,0-7.07-7.82H240.16v7.08l12.67,1.38c.25,12.75.27,25.57.27,38.28v5.39c0,13.85,0,26.83-.25,39.42l-12.69,1.38v7.09H282c31.13,0,52.9-18.07,52.9-50.08C334.85,95.1,319.92,77.66,295.93,73.66Z"/><path class="cls-3" d="M367.73,163.76l-2.22-.32h-2.85l-2.89.43-12.41,1.83v7.09h33.57V165.7Zm67.38.88L403.82,72.91l-.22-.62H391.24l-.51,1.47-31,90.11-3.06,8.92h8l3-9L375,141.93l2.62-7.88,13.92-41.84,13.69,41.84,2.58,7.88,7.28,22.27,2.8,8.59h20ZM415,134.05h-40.7l-2.47,7.88h46.08Zm20.09,30.59-8.69-1h-6.61l-4.72.59-13.29,1.66v6.93h43.64v-6.93Z"/><path class="cls-4" d="M467.21,72.77v7.08l12.68,1.38,8.08.88h1.95V72.77ZM488,163.44l-8.07.88-12.69,1.38v7.09h22.71v-9.35Zm11.72-38.59v-5.34c0-13.14,0-26.17.26-38.92q.07-3.93.19-7.82H479.69q.12,4.23.2,8.46c.25,12.75.25,25.57.25,38.28v5.39c0,13.84,0,26.83-.24,39.42q-.09,4.26-.21,8.47h20.45c-.07-2.61-.13-5.21-.19-7.83C499.69,152,499.69,138.77,499.69,124.85Zm12.16-52.08H489.92v7.82H509.4c19.59,0,31.4,14.73,31.4,42.22C540.8,149.59,529,165,508.59,165H489.92v7.83H509c31.14,0,52.89-18.07,52.89-50.08C561.88,91.05,542.26,72.77,511.85,72.77Z"/><path class="cls-5" d="M80.8,74.92,68.57,68.27,2,77.64H2a1.87,1.87,0,0,0-.32.08.32.32,0,0,1-.09,0l-.11.05-.1,0a.47.47,0,0,1-.12.07l-.07,0L1,78.07l-.05,0,0,0-.19.18a.05.05,0,0,0,0,0s0,.05-.06.06a.39.39,0,0,1-.08.1l-.07.13a.1.1,0,0,0,0,.07l0,0A2.56,2.56,0,0,0,.33,79L.3,79h0a2.17,2.17,0,0,1-.07.24.59.59,0,0,0,0,.13,1.58,1.58,0,0,0,0,.38h0V90.44h0a4.43,4.43,0,0,0,1.33,3h0l9.09,7.5a29,29,0,0,1,2.32,2.16,5,5,0,0,1,1,3L14,119.51c0,1.07,0,2.79,0,3.84l-.1,13.45a3.71,3.71,0,0,1,0,.47l0,.16a1.88,1.88,0,0,1,0,.33c0,.06,0,.13,0,.19s0,.21-.08.32l0,.19c0,.11-.07.22-.11.33l0,.16c0,.06-.05.12-.07.17s-.07.15-.09.22-.06.11-.08.17l-.1.19c-.05.07-.08.14-.13.21l-.1.17-.22.27-.08.1-.17.23-.1.12c-.06.06-.11.14-.17.21l-.12.15a1.93,1.93,0,0,0-.17.21l-.12.14c-.07.08-.13.16-.2.23a1.47,1.47,0,0,1-.1.13,2.85,2.85,0,0,1-.23.26l-.08.09c-.09.11-.18.23-.28.33l-.3.34L1.36,153s0,0,0,0l-.12.16c-.05,0-.08.1-.13.16h0l0,.08-.24.39,0,.06a.91.91,0,0,1-.07.14l-.09.18-.11.25a1.67,1.67,0,0,1-.08.2l0,.07-.06.18-.06.19a2.68,2.68,0,0,0-.07.27.53.53,0,0,0,0,.18l-.06.28c0,.05,0,.1,0,.15s0,.26,0,.4L0,167a1.69,1.69,0,0,0,.83,1.51L13,175.08l0,0a1.48,1.48,0,0,0,1,.19l21.76-3.06,44.86-6.3a2.23,2.23,0,0,0,1.78-2.18l0-10.45v-.17a4.42,4.42,0,0,0-1.31-3L72,142.61l-.72-.62c-.59-.53-1.22-1.13-1.6-1.54a5.06,5.06,0,0,1-1-3L68.63,124c0-1.06,0-2.78,0-3.84l.11-13.45a6.4,6.4,0,0,1,1-3.26c.55-.75,1.6-2,2.32-2.81l9.14-10.07a6,6,0,0,0,1.34-3.39l0-9.72v-.91A1.57,1.57,0,0,0,80.8,74.92ZM25.73,145.27a.43.43,0,0,0,.06-.17h0A.67.67,0,0,1,25.73,145.27Zm.35-33.09a3.64,3.64,0,0,1,.05.56h0A5.48,5.48,0,0,0,26.08,112.18ZM12.53,85.7a.14.14,0,0,0,0,.07l0-.08Zm.2-.41h0a1.7,1.7,0,0,1,.15-.22C12.84,85.14,12.78,85.21,12.73,85.29Z"/><path class="cls-11" d="M74.66,210.52a9.17,9.17,0,0,1-4.54-1.11A7.93,7.93,0,0,1,67,206.29a9.84,9.84,0,0,1,0-9.08,7.93,7.93,0,0,1,3.12-3.12A9.17,9.17,0,0,1,74.66,193a8.75,8.75,0,0,1,6.89,3.21l4.07-3.76a13.13,13.13,0,0,0-4.83-3.61,16.12,16.12,0,0,0-6.44-1.25,15.78,15.78,0,0,0-7.62,1.83,13.57,13.57,0,0,0-5.33,5,14.7,14.7,0,0,0,0,14.6,13.57,13.57,0,0,0,5.33,5,15.67,15.67,0,0,0,7.57,1.83,16.06,16.06,0,0,0,6.47-1.26A12.69,12.69,0,0,0,85.62,211l-4.07-3.76A8.7,8.7,0,0,1,74.66,210.52Z"/><path class="cls-11" d="M146.94,194.49a13.73,13.73,0,0,0-5.37-5.07,16.87,16.87,0,0,0-15.36,0,13.53,13.53,0,0,0-5.37,5.07,14.55,14.55,0,0,0,0,14.52,13.53,13.53,0,0,0,5.37,5.07,16.87,16.87,0,0,0,15.36,0,14.16,14.16,0,0,0,5.37-19.59Zm-5.58,11.8a8,8,0,0,1-3.08,3.12,9.2,9.2,0,0,1-8.76,0,8,8,0,0,1-3.08-3.12,9.76,9.76,0,0,1,0-9.08,8,8,0,0,1,3.08-3.12,9.2,9.2,0,0,1,8.76,0,8,8,0,0,1,3.08,3.12,9.76,9.76,0,0,1,0,9.08Z"/><path class="cls-11" d="M203.87,188.05v16.63l-13.63-16.63H185v27.4h6.26V198.82l13.67,16.63h5.2v-27.4Z"/><path class="cls-11" d="M261.43,210.52a9.17,9.17,0,0,1-4.54-1.11,7.93,7.93,0,0,1-3.12-3.12,9.76,9.76,0,0,1,0-9.08,7.93,7.93,0,0,1,3.12-3.12,9.17,9.17,0,0,1,4.54-1.11,8.75,8.75,0,0,1,6.89,3.21l4.07-3.76a13.13,13.13,0,0,0-4.83-3.61,16.12,16.12,0,0,0-6.44-1.25,15.75,15.75,0,0,0-7.62,1.83,13.57,13.57,0,0,0-5.33,5,14.7,14.7,0,0,0,0,14.6,13.57,13.57,0,0,0,5.33,5,15.67,15.67,0,0,0,7.57,1.83,16.06,16.06,0,0,0,6.47-1.26,12.77,12.77,0,0,0,4.85-3.64l-4.07-3.76A8.7,8.7,0,0,1,261.43,210.52Z"/><path class="cls-11" d="M326.11,206.64a8.92,8.92,0,0,0,5.64-8.65,9.41,9.41,0,0,0-1.45-5.28,9.29,9.29,0,0,0-4.13-3.45,15.23,15.23,0,0,0-6.32-1.21H308v27.4h6.34v-7.63h5.83l5.28,7.63h6.82Zm-2.27-5.12a6.61,6.61,0,0,1-4.34,1.25h-5.17v-9.55h5.17a6.66,6.66,0,0,1,4.34,1.23,4.34,4.34,0,0,1,1.49,3.54A4.39,4.39,0,0,1,323.84,201.52Z"/><path class="cls-11" d="M374.39,210.36V204h12.73v-4.94H374.39v-5.94H388.8v-5.09H368.08v27.4h21.23v-5.09Z"/><path class="cls-11" d="M422.59,188.05v5.17h8.77v22.23h6.34V193.22h8.77v-5.17Z"/><path class="cls-11" d="M487.51,210.36V204h12.72v-4.94H487.51v-5.94h14.41v-5.09H481.2v27.4h21.23v-5.09Z"/><path class="cls-12" d="M241.48,72.77h.93l-.29.39Z"/><path class="cls-13" d="M424,48.6c-17-1.19-29.37-7.06-40.34-14.33,1.05.37,2.13.74,3.17,1.13,22.37,8.27,44.8,8.14,67.28.16a132.19,132.19,0,0,0,35.34-19.21c-4.26,1.67-8.45,3.41-12.78,5-24.85,9.22-50.6,10.1-75.79,1.15-15.6-5.54-30-12.32-44.39-18.91-11.8-5.38-17.34-5-24.35,2.86-2.8,3.14-5.1,6.4-7.87,9.54l-1.07,1.2a7.24,7.24,0,0,1-2.4,1.61l-.27.13c-6.16,3.31-22.72-4.73-22.72-4.73s-28-7.89-28.87-2.36c-.94,6.39-9.69,11.59-9.69,11.59h0a14.74,14.74,0,0,1-14.67-1c-.29-.2-.57-.41-.86-.63A42.46,42.46,0,0,1,237.63,16c-2.77-3.14-5.07-6.4-7.86-9.54-7-7.83-12.55-8.24-24.36-2.86C191,10.19,176.62,17,161,22.51c-25.2,9-50.94,8.07-75.79-1.15-4.33-1.6-8.52-3.34-12.78-5a132.34,132.34,0,0,0,35.34,19.21c22.49,8,44.91,8.11,67.28-.16,1.05-.39,2.11-.76,3.18-1.13-11,7.27-23.39,13.14-40.35,14.33-17.53,1.23-31.12-3.7-43.75-10,8.34,7.65,19.46,13.37,34.28,16.19,28.85,5.49,51.16-1.82,71.42-12.91C195.77,49.5,188.63,55.7,177.2,60c-14.35,5.42-29.7,5.21-45.61,2.49a95.21,95.21,0,0,0,11.5,4.33c23.67,7.08,43.64,5.36,61.27-5.48a124.76,124.76,0,0,0,13-9.65c2.39-1.94,4.46-4,6.58-6.07v2.19c-5,9.73-15,17.85-25.82,25.76,16.25-4.54,27.4-11.65,35.22-20.48.7.12,1.38.23,2.05.36-3.25,6.58-8.41,12.78-12.55,19.25A108.81,108.81,0,0,0,239.4,59.35c1.32-1.36,2.54-2.75,3.71-4.16,1.38.37,2.73.76,4,1.17-2.42,5.11-4.82,10.19-7.16,15.17a98.88,98.88,0,0,1,12-13.44,66.69,66.69,0,0,1,23.21,14.68,50.28,50.28,0,0,1,6.46,7.82A40.28,40.28,0,0,1,284,84.51h0a36.43,36.43,0,0,1,2.2-3.73,50,50,0,0,1,6.34-7.59,65.91,65.91,0,0,1,18.84-12.82,76.4,76.4,0,0,0,10.54,11.16c-2-4.29-4.08-8.64-6.14-13,1.43-.57,2.89-1.11,4.45-1.63.73.84,1.48,1.67,2.27,2.48A108.81,108.81,0,0,0,339,72.72c-3.85-6-8.58-11.79-11.84-17.87l2.42-.56c7.75,8.28,18.63,15,34.14,19.3-9.06-6.65-17.61-13.45-23.07-21.22,1.33-.17,2.7-.32,4.1-.45a121.64,121.64,0,0,0,12.77,9.44c17.63,10.84,37.6,12.56,61.27,5.48a94.59,94.59,0,0,0,11.5-4.33C414.39,65.23,399,65.44,384.69,60c-11.43-4.32-18.57-10.52-22.64-18.14C382.3,53,404.61,60.28,433.46,54.79c14.82-2.82,26-8.54,34.28-16.19C455.11,44.9,441.53,49.83,424,48.6ZM225.62,44.09h0a.08.08,0,0,0,0,0S225.62,44.08,225.62,44.09Z"/><path class="cls-14" d="M307.11,43.37c-1-2.86-2.21-5.67-3-8.58-1.43-5-2.55-10.08-3.95-15.09a33,33,0,0,0-2.41-6.24,13.13,13.13,0,0,0-8-6.59v0a23.44,23.44,0,0,0-13.48,0v0a13.13,13.13,0,0,0-8,6.59,32.34,32.34,0,0,0-2.41,6.24c-1.4,5-2.53,10.09-4,15.09-.83,2.91-2,5.72-3,8.58l.06.12,3.91-5.61a26.76,26.76,0,0,0-.55,12.27c.45-2.77.79-5.52,1.36-8.22.6-2.86,2.5-6.58,3.67-7.18-2.66,6-3.61,10.93-2.62,14.06l2.74-9.36a9.27,9.27,0,0,1,.22,2.89c-.27,3-.59,6-.88,8.93a31.64,31.64,0,0,0,3.05-7.7c.57,5.79,1.18,8.08,2.88,10a24.41,24.41,0,0,1,1.39-15.53c-.47,4.68-1.65,9.39.61,13.94.4-1.58.6-3.19.95-4.76a9.24,9.24,0,0,1,2.05-4.58A15.71,15.71,0,0,0,280.92,54c0-.47,0-.62,0-.77a21.54,21.54,0,0,1,1.87-10.2,2.23,2.23,0,0,0,.18-.88c0-.46,0-.92,0-1.38,0,.46,0,.92,0,1.38a2.07,2.07,0,0,0,.18.88,21.42,21.42,0,0,1,1.86,10.2c0,.15,0,.3,0,.77a15.76,15.76,0,0,0,3.17-11.36,9.31,9.31,0,0,1,2,4.58c.36,1.57.56,3.18,1,4.76,2.26-4.55,1.08-9.26.61-13.94a24.41,24.41,0,0,1,1.39,15.53c1.69-2,2.31-4.24,2.88-10a31.64,31.64,0,0,0,3,7.7c-.29-2.91-.62-5.91-.88-8.93a9,9,0,0,1,.21-2.89c.91,3.07,1.81,6.14,2.75,9.36,1-3.13,0-8.08-2.62-14.06,1.17.6,3.07,4.32,3.67,7.18.56,2.7.91,5.45,1.35,8.22a26.76,26.76,0,0,0-.54-12.27l3.91,5.61Z"/><path class="cls-13" d="M292.22,55.68l.52-2.21a23.63,23.63,0,0,0,.4-9,15.25,15.25,0,0,1-1.36,7.83l-.67,1.36-.37-1.47c-.23-.9-.39-1.81-.55-2.69-.13-.7-.26-1.39-.41-2.08a12.66,12.66,0,0,0-.88-2.81,15.83,15.83,0,0,1-3.35,9.8l-.93,1.22-.09-2c0-.19,0-.3,0-.4A21.27,21.27,0,0,0,283,44a21.57,21.57,0,0,0-1.5,9.25,2.76,2.76,0,0,1,0,.39l-.1,2-.93-1.22a15.88,15.88,0,0,1-3.34-9.8,12.66,12.66,0,0,0-.88,2.81c-.16.69-.28,1.39-.41,2.09-.16.88-.32,1.78-.55,2.68l-.37,1.47-.67-1.36a15.15,15.15,0,0,1-1.36-7.83,23.62,23.62,0,0,0,.4,9l.52,2.21L272.33,54c-1.46-1.68-2.18-3.58-2.71-7.67a25.09,25.09,0,0,1-2.32,5.26L266,53.64l.49-4.88c.21-2,.41-4,.6-6l-2.35,8L264.2,49c-.67-2.11-.51-5,.44-8.41a12.43,12.43,0,0,0-.4,1.47c-.39,1.86-.68,3.79-1,5.66l-.39,2.54-.52,3.18-.59-3.17a27.5,27.5,0,0,1-.08-9.7l-2.81,4-.53-1.06,0-.34c.32-.89.65-1.77,1-2.66.72-1.91,1.48-3.9,2-5.88.74-2.6,1.41-5.26,2.06-7.84.6-2.38,1.22-4.84,1.89-7.25a32.81,32.81,0,0,1,2.45-6.35,13.68,13.68,0,0,1,7.86-6.72h0l.42-.16a21.75,21.75,0,0,1,6.92-1,22.1,22.1,0,0,1,6.91,1l.45.15v0a13.6,13.6,0,0,1,7.83,6.71,32.42,32.42,0,0,1,2.46,6.35c.67,2.41,1.29,4.87,1.89,7.25.65,2.58,1.32,5.24,2.06,7.84.56,2,1.31,4,2,5.88.34.89.67,1.77,1,2.66l.08.23-.11.22-.43-.23h0l.41.27-.42.83-.56-.71-2.27-3.25a27.27,27.27,0,0,1-.09,9.7l-.58,3.17-.52-3.18c-.14-.86-.26-1.71-.39-2.55-.28-1.87-.57-3.79-1-5.65-.1-.47-.24-1-.4-1.47.95,3.45,1.1,6.3.43,8.41l-.55,1.74-2.35-8c.19,2,.39,4.06.6,6.06l.49,4.86-1.28-2.08a25.09,25.09,0,0,1-2.32-5.26c-.54,4.09-1.25,6-2.71,7.67Zm-13.8-14.6-.12,1.63a15.37,15.37,0,0,0,2.08,9.55,21.21,21.21,0,0,1,1.94-9.45,1.57,1.57,0,0,0,.12-.63c0-.4,0-.79,0-1.19V40.8h1.11V41c0,.4,0,.79,0,1.19a1.41,1.41,0,0,0,.12.63,21.48,21.48,0,0,1,1.94,9.45,15.3,15.3,0,0,0,2.07-9.55l-.11-1.63,1.09,1.21a10,10,0,0,1,2.17,4.84c.16.71.29,1.42.42,2.14l.15.85c1-3.09.6-6.24.18-9.55-.1-.81-.2-1.63-.29-2.44l-.36-3.7,1.44,3.43a25,25,0,0,1,2,12.74,31.71,31.71,0,0,0,1.23-7.08l.28-2.88.82,2.77a46.94,46.94,0,0,0,1.64,4.9c-.19-2-.39-3.93-.57-5.92a9.79,9.79,0,0,1,.23-3.07l.48-2.08,2.63,9c0-2.89-1-6.76-2.95-11.23l-.65-1.44,1.41.72c1.44.73,3.38,4.77,4,7.56.27,1.32.5,2.66.7,4a25.84,25.84,0,0,0-1-7.76l-.91-3.2,3.5,5c-.61-1.6-1.2-3.24-1.67-4.9-.74-2.61-1.42-5.28-2.07-7.87-.59-2.37-1.21-4.82-1.88-7.22a31.79,31.79,0,0,0-2.37-6.14,12.66,12.66,0,0,0-7.63-6.31l-.45-.14h0A21,21,0,0,0,283,6.42a20.5,20.5,0,0,0-6.21.85l-.36.13a12.65,12.65,0,0,0-7.64,6.31,32.87,32.87,0,0,0-2.37,6.14c-.66,2.4-1.28,4.85-1.88,7.22-.65,2.59-1.32,5.26-2.06,7.87-.47,1.66-1.07,3.3-1.67,4.9l3.5-5L263.42,38a26.17,26.17,0,0,0-1,7.76c.21-1.33.44-2.66.71-4,.59-2.79,2.53-6.83,4-7.56l1.41-.72L267.87,35c-2,4.47-3,8.34-2.95,11.23l2.63-9,.48,2.08a9.79,9.79,0,0,1,.23,3.07c-.18,2-.38,4-.58,5.92a44.77,44.77,0,0,0,1.65-4.9l.81-2.78.29,2.89a31.71,31.71,0,0,0,1.23,7.08,25,25,0,0,1,2-12.74l1.44-3.43-.37,3.7c-.08.81-.18,1.63-.28,2.44-.42,3.31-.82,6.46.17,9.55.06-.28.11-.57.16-.85.13-.72.26-1.43.42-2.14a9.88,9.88,0,0,1,2.17-4.84Z"/><path class="cls-15" d="M292.48,22a10.59,10.59,0,0,1-4.59-1.62,4.15,4.15,0,0,0-.1,1.36l-.13-.27a36.16,36.16,0,0,1-1.56-3.83.29.29,0,0,1,.09-.39c.45-.37.88-.75,1.31-1.12.18.3.33.6.53.87a2.35,2.35,0,0,0,1.18.92,2.17,2.17,0,0,0,1.94-.34,2.2,2.2,0,0,0,1-2,1.53,1.53,0,0,0-.41-1.07c.57-.3,1.13-.59,1.67-.91l-.27-1-.14.15a9.51,9.51,0,0,1-2.16,1.63l-.15.08a1.39,1.39,0,0,1-.74,2.22,1.22,1.22,0,0,1-1.48-1l0-.17-.25.1a11.59,11.59,0,0,1-2.44.79c-.17,0-.28,0-.37-.15a4.33,4.33,0,0,0-1.3-1.36,2.63,2.63,0,0,0-3.08,0,4.44,4.44,0,0,0-1.28,1.38.22.22,0,0,1-.28.12,9.91,9.91,0,0,1-1.91-.55l-.85-.36a1.22,1.22,0,0,1-1.23,1.22A1.15,1.15,0,0,1,274.3,16a1.33,1.33,0,0,1,.13-1.51c-.29-.18-.59-.35-.88-.55a8.11,8.11,0,0,1-.73-.54l-.62.46c.39.22.79.42,1.19.63a1.57,1.57,0,0,0-.41,1.07A2.38,2.38,0,0,0,274.86,18a2,2,0,0,0,2.14-.8,7,7,0,0,0,.55-.86l.1-.18.72.62.68.6c.07.05.09.09.06.17-.28.74-.53,1.49-.83,2.22s-.6,1.34-.92,2a3.48,3.48,0,0,0-.09-1.36l-.78.43a10.45,10.45,0,0,1-2.85,1.07c-.27.05-.55.08-.82.11-.09,0-.14,0-.16.12a2.3,2.3,0,0,0,1.47,2.82.53.53,0,0,0,.28,0,3.91,3.91,0,0,1,1.27-.26l-.61.55a12,12,0,0,1,5.47,2.67l0,0c-.42-.51-.82-1-1.26-1.51s-1.06-1.13-1.61-1.67a4.57,4.57,0,0,0-2.08-1.05c-.54-.14-1.08-.23-1.62-.34l-.08,0,.31-.11.3-.08a4.27,4.27,0,0,1,2,0,4.65,4.65,0,0,1,1.38.67,6.9,6.9,0,0,1,1.6,1.45,18.34,18.34,0,0,1-.41-5.22,51.4,51.4,0,0,0,2.24,9,26.4,26.4,0,0,0,1.22,2.88A45,45,0,0,0,286,20a19.24,19.24,0,0,1,0,2.63,14.61,14.61,0,0,1-.41,2.61c.19-.2.35-.39.53-.57a6.24,6.24,0,0,1,2.33-1.52,3.89,3.89,0,0,1,2.14-.06,2.87,2.87,0,0,1,.62.22l-.85.16a6.31,6.31,0,0,0-2.39.87,8,8,0,0,0-1.27,1.12c-.69.75-1.34,1.54-2,2.32a.47.47,0,0,0-.08.14,12.09,12.09,0,0,1,5.47-2.66l-.63-.57c.23,0,.43.05.64.09l.68.2a.41.41,0,0,0,.22,0,2.22,2.22,0,0,0,1.55-2.44C292.54,22.34,292.5,22.17,292.48,22ZM281,16.87a.68.68,0,0,0-.24.56,1,1,0,0,1-.12.43c-.17.37-.35.73-.53,1.09a1,1,0,0,1-.21.25.19.19,0,0,1-.33-.1,1.36,1.36,0,0,1,0-.8,1.71,1.71,0,0,1,.83-1.13.32.32,0,0,0,.11-.12,2.93,2.93,0,0,1,1.24-1l.07,0C281.54,16.31,281.26,16.58,281,16.87Zm4.6,2.24c-.08.17-.2.21-.33.08a1.49,1.49,0,0,1-.28-.38c-.19-.39-.36-.8-.54-1.2,0-.67-.5-1-.93-1.39a1.56,1.56,0,0,0-.2-.16,2.71,2.71,0,0,1,1.32,1,.73.73,0,0,0,.2.19,1.65,1.65,0,0,1,.74,1,4.15,4.15,0,0,1,.07.7A.48.48,0,0,1,285.59,19.11Z"/><path class="cls-16" d="M275.49,15.28a.41.41,0,0,1-.43.4.39.39,0,0,1-.4-.41.4.4,0,0,1,.41-.41A.43.43,0,0,1,275.49,15.28Z"/><path class="cls-17" d="M290.51,15.28a.43.43,0,0,1-.44.41.4.4,0,0,1-.39-.4.41.41,0,0,1,.41-.43A.42.42,0,0,1,290.51,15.28Z"/><path class="cls-12" d="M137.33,74.82l-.22-1.12h0C137.19,74.07,137.27,74.44,137.33,74.82Z"/><path class="cls-12" d="M167.57,164.55c-1.38-1.54-2.74-3.1-4-4.7l-.54-.66.54-.88.54.88C165.21,161,166.38,162.76,167.57,164.55Z"/><path class="cls-12" d="M155.31,143.64a138.12,138.12,0,0,0,8.21,14.67l-.54.88a119.18,119.18,0,0,1-10-14.3,110.91,110.91,0,0,1-9.93-22.56c-1.55-4.71-2.85-9.48-4.05-14.26a96.34,96.34,0,0,1-4.31,20.63A86.6,86.6,0,0,1,122,153.24c-5.57,7.31-12.14,14-20,18.63a83.18,83.18,0,0,0,17.62-20.26,84.92,84.92,0,0,0,6.24-11.77,84,84,0,0,0,4.5-12.47A100.34,100.34,0,0,0,134,101.19a129.13,129.13,0,0,0-2.4-26.42l5.47-1.09v0l.22,1.12,4.5,22.72c1.59,7.93,3.26,15.82,5.29,23.57A126.67,126.67,0,0,0,155.31,143.64Z"/><path class="cls-12" d="M225,171.87c-7.85-4.67-14.41-11.32-20-18.63a86.6,86.6,0,0,1-12.71-24.54A95.84,95.84,0,0,1,188,108.06c-1.19,4.79-2.5,9.54-4,14.27a109.31,109.31,0,0,1-9.94,22.56,118,118,0,0,1-10,14.3l-.54-.88a138.12,138.12,0,0,0,8.21-14.67,126.67,126.67,0,0,0,8.19-22.53c2-7.75,3.7-15.64,5.29-23.57l4.56-23c0-.27.1-.54.15-.81h0v0l5.47,1.09A129.14,129.14,0,0,0,193,101.19a100.34,100.34,0,0,0,3.68,26.18,84,84,0,0,0,4.5,12.47,85,85,0,0,0,6.25,11.77A82.71,82.71,0,0,0,225,171.87Z"/><path class="cls-12" d="M164.06,159.19l-.54.66c-1.31,1.6-2.67,3.16-4.05,4.7,1.19-1.79,2.37-3.57,3.51-5.36l.54-.88Z"/></g></g></svg>